<svg xmlns="http://www.w3.org/2000/svg" width="264.312" height="25.812" viewBox="0 0 264.312 25.812"><path id="logo" d="M1.26-5.364a9.182 9.182 0 004.54 4.5l1.508-3.168a6.29 6.29 0 01-2.772-2.7zm10.116-9.144c-4-1.116-5.76-1.98-5.76-3.924C5.616-20.2 7.02-22 10.728-22c.36 0 .828.036 1.152.072l1.944-3.1a11.127 11.127 0 00-3.2-.432c-5.22 0-8.568 2.808-8.676 6.912-.144 4.356 3.168 5.9 8.208 7.344C14.436-9.972 16.7-9.108 16.7-6.84s-2.372 3.74-5.4 3.708L9.684.252a13.09 13.09 0 001.728.108c5.8 0 8.928-3.384 8.928-7.308 0-4.536-3.852-6.12-8.964-7.56zM38.124-25.2h-3.348L25.74 0h3.78l6.948-20.052L43.416 0H47.2zm40.1-.216L66.2-11.16 54.144-25.416h-.288V0h3.42v-16.308L66.024-5.8h.324l8.784-10.512V0h3.42v-25.416zm18.036.216h-9.428v3.42h9.432a4.482 4.482 0 014.68 4.716 4.494 4.494 0 01-4.68 4.68h-9.432V0h3.42v-8.964h6.012a7.864 7.864 0 008.244-8.1 7.832 7.832 0 00-8.244-8.136zm18.9 0h-3.456v4.068h3.456zm0 7.6h-3.456v14.5l3.456-3.42zm2.24 14.144L113.9 0h12.96v-3.456zm16.488 0V0h16.74v-3.456zm15.408-10.836h-15.412v3.348h15.408zm1.112-10.908h-16.524v3.42h16.524zm30.852 0h-9.432v3.42h9.432a4.482 4.482 0 014.68 4.716 4.494 4.494 0 01-4.68 4.68h-9.432V0h3.42v-8.964h6.012a7.864 7.864 0 008.244-8.1 7.832 7.832 0 00-8.244-8.136zm23.328 0h-3.348L192.2 0h3.78l6.948-20.052L209.88 0h3.78zm32.9 11.052V-4.9a8.877 8.877 0 01-6.984 1.728c-4.9-.612-8.64-4.212-8.64-9.4a9.206 9.206 0 018.712-9.4 11.848 11.848 0 017.848 2.016l1.764-2.592a14.722 14.722 0 00-9.936-2.88c-7.092.468-11.916 5.724-11.916 12.852 0 7.092 4.788 12.1 11.844 12.816 5.112.54 9.036-1.62 10.728-3.924v-10.464zm11.34 10.692V0h16.74v-3.456zm15.412-10.836h-15.408v3.348h15.408zm1.116-10.908h-16.524v3.42h16.524z" transform="translate(-1.26 25.452)" fill="#fff"/></svg>