<svg xmlns="http://www.w3.org/2000/svg"><symbol id="trash-solid" viewBox="0 0 448 512"><path d="M432 32H312l-9.4-18.7A24 24 0 00281.1 0H166.8a23.72 23.72 0 00-21.4 13.3L136 32H16A16 16 0 000 48v32a16 16 0 0016 16h416a16 16 0 0016-16V48a16 16 0 00-16-16zM53.2 467a48 48 0 0047.9 45h245.8a48 48 0 0047.9-45L416 128H32z"/></symbol><symbol id="trash-regular" viewBox="0 0 448 512"><path d="M432 80h-82.4l-34-56.7A48 48 0 00274.4 0H173.6a48 48 0 00-41.2 23.3L98.4 80H16A16 16 0 000 96v16a16 16 0 0016 16h16l21.2 339a48 48 0 0047.9 45h245.8a48 48 0 0047.9-45L416 128h16a16 16 0 0016-16V96a16 16 0 00-16-16zM173.6 48h100.8l19.2 32H154.4zm173.3 416H101.11l-21-336h287.8z"/></symbol><symbol id="trash-light" viewBox="0 0 448 512"><path d="M440 64H336l-33.6-44.8A48 48 0 00264 0h-80a48 48 0 00-38.4 19.2L112 64H8a8 8 0 00-8 8v16a8 8 0 008 8h18.9l33.2 372.3a48 48 0 0047.8 43.7h232.2a48 48 0 0047.8-43.7L421.1 96H440a8 8 0 008-8V72a8 8 0 00-8-8zM171.2 38.4A16.1 16.1 0 01184 32h80a16.1 16.1 0 0112.8 6.4L296 64H152zm184.8 427a15.91 15.91 0 01-15.9 14.6H107.9A15.91 15.91 0 0192 465.4L59 96h330z"/></symbol><symbol id="trash-alt-solid" viewBox="0 0 448 512"><path d="M32 464a48 48 0 0048 48h288a48 48 0 0048-48V128H32zm272-256a16 16 0 0132 0v224a16 16 0 01-32 0zm-96 0a16 16 0 0132 0v224a16 16 0 01-32 0zm-96 0a16 16 0 0132 0v224a16 16 0 01-32 0zM432 32H312l-9.4-18.7A24 24 0 00281.1 0H166.8a23.72 23.72 0 00-21.4 13.3L136 32H16A16 16 0 000 48v32a16 16 0 0016 16h416a16 16 0 0016-16V48a16 16 0 00-16-16z"/></symbol><symbol id="trash-alt-regular" viewBox="0 0 448 512"><path d="M268 416h24a12 12 0 0012-12V188a12 12 0 00-12-12h-24a12 12 0 00-12 12v216a12 12 0 0012 12zM432 80h-82.41l-34-56.7A48 48 0 00274.41 0H173.59a48 48 0 00-41.16 23.3L98.41 80H16A16 16 0 000 96v16a16 16 0 0016 16h16v336a48 48 0 0048 48h288a48 48 0 0048-48V128h16a16 16 0 0016-16V96a16 16 0 00-16-16zM171.84 50.91A6 6 0 01177 48h94a6 6 0 015.15 2.91L293.61 80H154.39zM368 464H80V128h288zm-212-48h24a12 12 0 0012-12V188a12 12 0 00-12-12h-24a12 12 0 00-12 12v216a12 12 0 0012 12z"/></symbol><symbol id="trash-alt-light" viewBox="0 0 448 512"><path d="M296 432h16a8 8 0 008-8V152a8 8 0 00-8-8h-16a8 8 0 00-8 8v272a8 8 0 008 8zm-160 0h16a8 8 0 008-8V152a8 8 0 00-8-8h-16a8 8 0 00-8 8v272a8 8 0 008 8zM440 64H336l-33.6-44.8A48 48 0 00264 0h-80a48 48 0 00-38.4 19.2L112 64H8a8 8 0 00-8 8v16a8 8 0 008 8h24v368a48 48 0 0048 48h288a48 48 0 0048-48V96h24a8 8 0 008-8V72a8 8 0 00-8-8zM171.2 38.4A16.1 16.1 0 01184 32h80a16.1 16.1 0 0112.8 6.4L296 64H152zM384 464a16 16 0 01-16 16H80a16 16 0 01-16-16V96h320zm-168-32h16a8 8 0 008-8V152a8 8 0 00-8-8h-16a8 8 0 00-8 8v272a8 8 0 008 8z"/></symbol><symbol id="phone-solid" viewBox="0 0 512 512"><path d="M493.4 24.6l-104-24c-11.3-2.6-22.9 3.3-27.5 13.9l-48 112c-4.2 9.8-1.4 21.3 6.9 28l60.6 49.6c-36 76.7-98.9 140.5-177.2 177.2l-49.6-60.6c-6.8-8.3-18.2-11.1-28-6.9l-112 48C3.9 366.5-2 378.1.6 389.4l24 104C27.1 504.2 36.7 512 48 512c256.1 0 464-207.5 464-464 0-11.2-7.7-20.9-18.6-23.4z"/></symbol><symbol id="phone-regular" viewBox="0 0 512 512"><path d="M476.5 22.9L382.3 1.2c-21.6-5-43.6 6.2-52.3 26.6l-43.5 101.5c-8 18.6-2.6 40.6 13.1 53.4l40 32.7C311 267.8 267.8 311 215.4 339.5l-32.7-40c-12.8-15.7-34.8-21.1-53.4-13.1L27.7 329.9c-20.4 8.7-31.5 30.7-26.6 52.3l21.7 94.2c4.8 20.9 23.2 35.5 44.6 35.5C312.3 512 512 313.7 512 67.5c0-21.4-14.6-39.8-35.5-44.6zM69.3 464l-20.9-90.7 98.2-42.1 55.7 68.1c98.8-46.4 150.6-98 197-197l-68.1-55.7 42.1-98.2L464 69.3C463 286.9 286.9 463 69.3 464z"/></symbol><symbol id="phone-light" viewBox="0 0 512 512"><path d="M487.8 24.1L387 .8c-14.7-3.4-29.8 4.2-35.8 18.1l-46.5 108.5c-5.5 12.7-1.8 27.7 8.9 36.5l53.9 44.1c-34 69.2-90.3 125.6-159.6 159.6l-44.1-53.9c-8.8-10.7-23.8-14.4-36.5-8.9L18.9 351.3C5 357.3-2.6 372.3.8 387L24 487.7C27.3 502 39.9 512 54.5 512 306.7 512 512 307.8 512 54.5c0-14.6-10-27.2-24.2-30.4zM55.1 480l-23-99.6 107.4-46 59.5 72.8c103.6-48.6 159.7-104.9 208.1-208.1l-72.8-59.5 46-107.4 99.6 23C479.7 289.7 289.6 479.7 55.1 480z"/></symbol><symbol id="phone-alt-solid" viewBox="0 0 512 512"><path d="M497.39 361.8l-112-48a24 24 0 00-28 6.9l-49.6 60.6A370.66 370.66 0 01130.6 204.11l60.6-49.6a23.94 23.94 0 006.9-28l-48-112A24.16 24.16 0 00122.6.61l-104 24A24 24 0 000 48c0 256.5 207.9 464 464 464a24 24 0 0023.4-18.6l24-104a24.29 24.29 0 00-14.01-27.6z"/></symbol><symbol id="phone-alt-regular" viewBox="0 0 512 512"><path d="M484.25 330l-101.59-43.55a45.86 45.86 0 00-53.39 13.1l-32.7 40a311.08 311.08 0 01-124.19-124.12l40-32.7a45.91 45.91 0 0013.1-53.42L182 27.79a45.63 45.63 0 00-52.31-26.61L35.5 22.89A45.59 45.59 0 000 67.5C0 313.76 199.68 512.1 444.56 512a45.58 45.58 0 0044.59-35.51l21.7-94.22a45.75 45.75 0 00-26.6-52.27zm-41.59 134.09C225.08 463.09 49 287 48 69.3l90.69-20.9 42.09 98.22-68.09 55.71c46.39 99 98.19 150.63 197 197l55.69-68.11 98.19 42.11z"/></symbol><symbol id="phone-alt-light" viewBox="0 0 512 512"><path d="M493.09 351.3L384.7 304.8a31.36 31.36 0 00-36.5 8.9l-44.1 53.9A350 350 0 01144.5 208l53.9-44.1a31.35 31.35 0 008.9-36.49l-46.5-108.5A31.33 31.33 0 00125 .81L24.2 24.11A31.05 31.05 0 000 54.51C0 307.8 205.3 512 457.49 512A31.23 31.23 0 00488 487.7L511.19 387a31.21 31.21 0 00-18.1-35.7zM456.89 480C222.4 479.7 32.3 289.7 32.1 55.21l99.6-23 46 107.39-72.8 59.5C153.3 302.3 209.4 358.6 313 407.2l59.5-72.8 107.39 46z"/></symbol><symbol id="clock-solid" viewBox="0 0 512 512"><path d="M256 8C119 8 8 119 8 256s111 248 248 248 248-111 248-248S393 8 256 8zm92.49 313l-20 25a16 16 0 01-22.49 2.5l-67-49.72a40 40 0 01-15-31.23V112a16 16 0 0116-16h32a16 16 0 0116 16v144l58 42.5a16 16 0 012.49 22.5z"/></symbol><symbol id="clock-regular" viewBox="0 0 512 512"><path d="M256 8C119 8 8 119 8 256s111 248 248 248 248-111 248-248S393 8 256 8zm0 448c-110.5 0-200-89.5-200-200S145.5 56 256 56s200 89.5 200 200-89.5 200-200 200zm61.8-104.4l-84.9-61.7c-3.1-2.3-4.9-5.9-4.9-9.7V116c0-6.6 5.4-12 12-12h32c6.6 0 12 5.4 12 12v141.7l66.8 48.6c5.4 3.9 6.5 11.4 2.6 16.8L334.6 349c-3.9 5.3-11.4 6.5-16.8 2.6z"/></symbol><symbol id="clock-light" viewBox="0 0 512 512"><path d="M256 8C119 8 8 119 8 256s111 248 248 248 248-111 248-248S393 8 256 8zm216 248c0 118.7-96.1 216-216 216-118.7 0-216-96.1-216-216 0-118.7 96.1-216 216-216 118.7 0 216 96.1 216 216zm-148.9 88.3l-81.2-59c-3.1-2.3-4.9-5.9-4.9-9.7V116c0-6.6 5.4-12 12-12h14c6.6 0 12 5.4 12 12v146.3l70.5 51.3c5.4 3.9 6.5 11.4 2.6 16.8l-8.2 11.3c-3.9 5.3-11.4 6.5-16.8 2.6z"/></symbol><symbol id="map-marker-solid" viewBox="0 0 384 512"><path d="M172.268 501.67C26.97 291.031 0 269.413 0 192 0 85.961 85.961 0 192 0s192 85.961 192 192c0 77.413-26.97 99.031-172.268 309.67-9.535 13.774-29.93 13.773-39.464 0z"/></symbol><symbol id="map-marker-regular" viewBox="0 0 384 512"><path d="M192 0C85.903 0 0 86.014 0 192c0 71.117 23.991 93.341 151.271 297.424 18.785 30.119 62.694 30.083 81.457 0C360.075 285.234 384 263.103 384 192 384 85.903 297.986 0 192 0zm0 464C64.576 259.686 48 246.788 48 192c0-79.529 64.471-144 144-144s144 64.471 144 144c0 54.553-15.166 65.425-144 272z"/></symbol><symbol id="map-marker-light" viewBox="0 0 384 512"><path d="M192 0C85.961 0 0 85.961 0 192c0 77.413 26.97 99.031 172.268 309.67 9.534 13.772 29.929 13.774 39.465 0C357.03 291.031 384 269.413 384 192 384 85.961 298.039 0 192 0zm0 473.931C52.705 272.488 32 256.494 32 192c0-42.738 16.643-82.917 46.863-113.137S149.262 32 192 32s82.917 16.643 113.137 46.863S352 149.262 352 192c0 64.49-20.692 80.47-160 281.931z"/></symbol><symbol id="map-marker-alt-solid" viewBox="0 0 384 512"><path d="M172.268 501.67C26.97 291.031 0 269.413 0 192 0 85.961 85.961 0 192 0s192 85.961 192 192c0 77.413-26.97 99.031-172.268 309.67-9.535 13.774-29.93 13.773-39.464 0zM192 272c44.183 0 80-35.817 80-80s-35.817-80-80-80-80 35.817-80 80 35.817 80 80 80z"/></symbol><symbol id="map-marker-alt-regular" viewBox="0 0 384 512"><path d="M192 0C85.903 0 0 86.014 0 192c0 71.117 23.991 93.341 151.271 297.424 18.785 30.119 62.694 30.083 81.457 0C360.075 285.234 384 263.103 384 192 384 85.903 297.986 0 192 0zm0 464C64.576 259.686 48 246.788 48 192c0-79.529 64.471-144 144-144s144 64.471 144 144c0 54.553-15.166 65.425-144 272zm-80-272c0-44.183 35.817-80 80-80s80 35.817 80 80-35.817 80-80 80-80-35.817-80-80z"/></symbol><symbol id="map-marker-alt-light" viewBox="0 0 384 512"><path d="M192 96c-52.935 0-96 43.065-96 96s43.065 96 96 96 96-43.065 96-96-43.065-96-96-96zm0 160c-35.29 0-64-28.71-64-64s28.71-64 64-64 64 28.71 64 64-28.71 64-64 64zm0-256C85.961 0 0 85.961 0 192c0 77.413 26.97 99.031 172.268 309.67 9.534 13.772 29.929 13.774 39.465 0C357.03 291.031 384 269.413 384 192 384 85.961 298.039 0 192 0zm0 473.931C52.705 272.488 32 256.494 32 192c0-42.738 16.643-82.917 46.863-113.137S149.262 32 192 32s82.917 16.643 113.137 46.863S352 149.262 352 192c0 64.49-20.692 80.47-160 281.931z"/></symbol><symbol id="crosshairs-solid" viewBox="0 0 512 512"><path d="M500 224h-30.364C455.724 130.325 381.675 56.276 288 42.364V12c0-6.627-5.373-12-12-12h-40c-6.627 0-12 5.373-12 12v30.364C130.325 56.276 56.276 130.325 42.364 224H12c-6.627 0-12 5.373-12 12v40c0 6.627 5.373 12 12 12h30.364C56.276 381.675 130.325 455.724 224 469.636V500c0 6.627 5.373 12 12 12h40c6.627 0 12-5.373 12-12v-30.364C381.675 455.724 455.724 381.675 469.636 288H500c6.627 0 12-5.373 12-12v-40c0-6.627-5.373-12-12-12zM288 404.634V364c0-6.627-5.373-12-12-12h-40c-6.627 0-12 5.373-12 12v40.634C165.826 392.232 119.783 346.243 107.366 288H148c6.627 0 12-5.373 12-12v-40c0-6.627-5.373-12-12-12h-40.634C119.768 165.826 165.757 119.783 224 107.366V148c0 6.627 5.373 12 12 12h40c6.627 0 12-5.373 12-12v-40.634C346.174 119.768 392.217 165.757 404.634 224H364c-6.627 0-12 5.373-12 12v40c0 6.627 5.373 12 12 12h40.634C392.232 346.174 346.243 392.217 288 404.634zM288 256c0 17.673-14.327 32-32 32s-32-14.327-32-32c0-17.673 14.327-32 32-32s32 14.327 32 32z"/></symbol><symbol id="crosshairs-regular" viewBox="0 0 512 512"><path d="M500 232h-29.334C459.597 131.885 380.115 52.403 280 41.334V12c0-6.627-5.373-12-12-12h-24c-6.627 0-12 5.373-12 12v29.334C131.885 52.403 52.403 131.885 41.334 232H12c-6.627 0-12 5.373-12 12v24c0 6.627 5.373 12 12 12h29.334C52.403 380.115 131.885 459.597 232 470.666V500c0 6.627 5.373 12 12 12h24c6.627 0 12-5.373 12-12v-29.334C380.115 459.597 459.597 380.115 470.666 280H500c6.627 0 12-5.373 12-12v-24c0-6.627-5.373-12-12-12zM280 422.301V380c0-6.627-5.373-12-12-12h-24c-6.627 0-12 5.373-12 12v42.301C158.427 411.84 100.154 353.532 89.699 280H132c6.627 0 12-5.373 12-12v-24c0-6.627-5.373-12-12-12H89.699C100.16 158.427 158.468 100.154 232 89.699V132c0 6.627 5.373 12 12 12h24c6.627 0 12-5.373 12-12V89.699C353.573 100.16 411.846 158.468 422.301 232H380c-6.627 0-12 5.373-12 12v24c0 6.627 5.373 12 12 12h42.301C411.84 353.573 353.532 411.846 280 422.301zM288 256c0 17.673-14.327 32-32 32s-32-14.327-32-32c0-17.673 14.327-32 32-32s32 14.327 32 32z"/></symbol><symbol id="crosshairs-light" viewBox="0 0 512 512"><path d="M506 240h-34.591C463.608 133.462 378.538 48.392 272 40.591V6a6 6 0 00-6-6h-20a6 6 0 00-6 6v34.591C133.462 48.392 48.392 133.462 40.591 240H6a6 6 0 00-6 6v20a6 6 0 006 6h34.591C48.392 378.538 133.462 463.608 240 471.409V506a6 6 0 006 6h20a6 6 0 006-6v-34.591C378.538 463.608 463.608 378.538 471.409 272H506a6 6 0 006-6v-20a6 6 0 00-6-6zM272 439.305V374a6 6 0 00-6-6h-20a6 6 0 00-6 6v65.305C151.282 431.711 80.315 361.031 72.695 272H138a6 6 0 006-6v-20a6 6 0 00-6-6H72.695C80.289 151.282 150.969 80.316 240 72.695V138a6 6 0 006 6h20a6 6 0 006-6V72.695C360.718 80.289 431.685 150.969 439.305 240H374a6 6 0 00-6 6v20a6 6 0 006 6h65.305C431.711 360.718 361.031 431.684 272 439.305zM280 256c0 13.255-10.745 24-24 24s-24-10.745-24-24 10.745-24 24-24 24 10.745 24 24z"/></symbol><symbol id="search-solid" viewBox="0 0 512 512"><path d="M505 442.7L405.3 343c-4.5-4.5-10.6-7-17-7H372c27.6-35.3 44-79.7 44-128C416 93.1 322.9 0 208 0S0 93.1 0 208s93.1 208 208 208c48.3 0 92.7-16.4 128-44v16.3c0 6.4 2.5 12.5 7 17l99.7 99.7c9.4 9.4 24.6 9.4 33.9 0l28.3-28.3c9.4-9.4 9.4-24.6.1-34zM208 336c-70.7 0-128-57.2-128-128 0-70.7 57.2-128 128-128 70.7 0 128 57.2 128 128 0 70.7-57.2 128-128 128z"/></symbol><symbol id="search-regular" viewBox="0 0 512 512"><path d="M508.5 468.9L387.1 347.5c-2.3-2.3-5.3-3.5-8.5-3.5h-13.2c31.5-36.5 50.6-84 50.6-136C416 93.1 322.9 0 208 0S0 93.1 0 208s93.1 208 208 208c52 0 99.5-19.1 136-50.6v13.2c0 3.2 1.3 6.2 3.5 8.5l121.4 121.4c4.7 4.7 12.3 4.7 17 0l22.6-22.6c4.7-4.7 4.7-12.3 0-17zM208 368c-88.4 0-160-71.6-160-160S119.6 48 208 48s160 71.6 160 160-71.6 160-160 160z"/></symbol><symbol id="search-light" viewBox="0 0 512 512"><path d="M508.5 481.6l-129-129c-2.3-2.3-5.3-3.5-8.5-3.5h-10.3C395 312 416 262.5 416 208 416 93.1 322.9 0 208 0S0 93.1 0 208s93.1 208 208 208c54.5 0 104-21 141.1-55.2V371c0 3.2 1.3 6.2 3.5 8.5l129 129c4.7 4.7 12.3 4.7 17 0l9.9-9.9c4.7-4.7 4.7-12.3 0-17zM208 384c-97.3 0-176-78.7-176-176S110.7 32 208 32s176 78.7 176 176-78.7 176-176 176z"/></symbol><symbol id="envelope-solid" viewBox="0 0 512 512"><path d="M502.3 190.8c3.9-3.1 9.7-.2 9.7 4.7V400c0 26.5-21.5 48-48 48H48c-26.5 0-48-21.5-48-48V195.6c0-5 5.7-7.8 9.7-4.7 22.4 17.4 52.1 39.5 154.1 113.6 21.1 15.4 56.7 47.8 92.2 47.6 35.7.3 72-32.8 92.3-47.6 102-74.1 131.6-96.3 154-113.7zM256 320c23.2.4 56.6-29.2 73.4-41.4 132.7-96.3 142.8-104.7 173.4-128.7 5.8-4.5 9.2-11.5 9.2-18.9v-19c0-26.5-21.5-48-48-48H48C21.5 64 0 85.5 0 112v19c0 7.4 3.4 14.3 9.2 18.9 30.6 23.9 40.7 32.4 173.4 128.7 16.8 12.2 50.2 41.8 73.4 41.4z"/></symbol><symbol id="envelope-regular" viewBox="0 0 512 512"><path d="M464 64H48C21.49 64 0 85.49 0 112v288c0 26.51 21.49 48 48 48h416c26.51 0 48-21.49 48-48V112c0-26.51-21.49-48-48-48zm0 48v40.805c-22.422 18.259-58.168 46.651-134.587 106.49-16.841 13.247-50.201 45.072-73.413 44.701-23.208.375-56.579-31.459-73.413-44.701C106.18 199.465 70.425 171.067 48 152.805V112h416zM48 400V214.398c22.914 18.251 55.409 43.862 104.938 82.646 21.857 17.205 60.134 55.186 103.062 54.955 42.717.231 80.509-37.199 103.053-54.947 49.528-38.783 82.032-64.401 104.947-82.653V400H48z"/></symbol><symbol id="envelope-light" viewBox="0 0 512 512"><path d="M464 64H48C21.5 64 0 85.5 0 112v288c0 26.5 21.5 48 48 48h416c26.5 0 48-21.5 48-48V112c0-26.5-21.5-48-48-48zM48 96h416c8.8 0 16 7.2 16 16v41.4c-21.9 18.5-53.2 44-150.6 121.3-16.9 13.4-50.2 45.7-73.4 45.3-23.2.4-56.6-31.9-73.4-45.3C85.2 197.4 53.9 171.9 32 153.4V112c0-8.8 7.2-16 16-16zm416 320H48c-8.8 0-16-7.2-16-16V195c22.8 18.7 58.8 47.6 130.7 104.7 20.5 16.4 56.7 52.5 93.3 52.3 36.4.3 72.3-35.5 93.3-52.3 71.9-57.1 107.9-86 130.7-104.7v205c0 8.8-7.2 16-16 16z"/></symbol><symbol id="window-restore-solid" viewBox="0 0 512 512"><path d="M512 48v288c0 26.5-21.5 48-48 48h-48V176c0-44.1-35.9-80-80-80H128V48c0-26.5 21.5-48 48-48h288c26.5 0 48 21.5 48 48zM384 176v288c0 26.5-21.5 48-48 48H48c-26.5 0-48-21.5-48-48V176c0-26.5 21.5-48 48-48h288c26.5 0 48 21.5 48 48zm-68 28c0-6.6-5.4-12-12-12H76c-6.6 0-12 5.4-12 12v52h252v-52z"/></symbol><symbol id="window-restore-regular" viewBox="0 0 512 512"><path d="M464 0H144c-26.5 0-48 21.5-48 48v48H48c-26.5 0-48 21.5-48 48v320c0 26.5 21.5 48 48 48h320c26.5 0 48-21.5 48-48v-48h48c26.5 0 48-21.5 48-48V48c0-26.5-21.5-48-48-48zm-96 464H48V256h320v208zm96-96h-48V144c0-26.5-21.5-48-48-48H144V48h320v320z"/></symbol><symbol id="window-restore-light" viewBox="0 0 512 512"><path d="M464 0H144c-26.5 0-48 21.5-48 48v48H48c-26.5 0-48 21.5-48 48v320c0 26.5 21.5 48 48 48h320c26.5 0 48-21.5 48-48v-48h48c26.5 0 48-21.5 48-48V48c0-26.5-21.5-48-48-48zM32 144c0-8.8 7.2-16 16-16h320c8.8 0 16 7.2 16 16v80H32v-80zm352 320c0 8.8-7.2 16-16 16H48c-8.8 0-16-7.2-16-16V256h352v208zm96-96c0 8.8-7.2 16-16 16h-48V144c0-26.5-21.5-48-48-48H128V48c0-8.8 7.2-16 16-16h320c8.8 0 16 7.2 16 16v320z"/></symbol><symbol id="external-link-solid" viewBox="0 0 512 512"><path d="M432 320h-32a16 16 0 00-16 16v112H64V128h144a16 16 0 0016-16V80a16 16 0 00-16-16H48a48 48 0 00-48 48v352a48 48 0 0048 48h352a48 48 0 0048-48V336a16 16 0 00-16-16zM474.67 0H316a28 28 0 00-28 28v18.71a28 28 0 0028.79 27.19L384 72 135.06 319.09l-.06.06a24 24 0 000 33.94l23.94 23.85.06.06a24 24 0 0033.91-.09L440 128l-1.88 67.22v.78a28 28 0 0028 28H484a28 28 0 0028-28V37.33A37.33 37.33 0 00474.67 0z"/></symbol><symbol id="external-link-regular" viewBox="0 0 512 512"><path d="M497.6 0L334.4.17a14.4 14.4 0 00-14.4 14.4v33.31a14.4 14.4 0 0014.69 14.4l73.63-2.72 2.06 2.06-278.86 278.87a12 12 0 000 17l23 23a12 12 0 0017 0l278.86-278.87 2.06 2.06-2.72 73.63a14.4 14.4 0 0014.4 14.69h33.31a14.4 14.4 0 0014.4-14.4L512 14.4A14.4 14.4 0 00497.6 0zM432 288h-16a16 16 0 00-16 16v154a6 6 0 01-6 6H54a6 6 0 01-6-6V118a6 6 0 016-6h154a16 16 0 0016-16V80a16 16 0 00-16-16H48a48 48 0 00-48 48v352a48 48 0 0048 48h352a48 48 0 0048-48V304a16 16 0 00-16-16z"/></symbol><symbol id="external-link-light" viewBox="0 0 512 512"><path d="M440 256h-16a8 8 0 00-8 8v200a16 16 0 01-16 16H48a16 16 0 01-16-16V112a16 16 0 0116-16h200a8 8 0 008-8V72a8 8 0 00-8-8H48a48 48 0 00-48 48v352a48 48 0 0048 48h352a48 48 0 0048-48V264a8 8 0 00-8-8zM500 0L364 .34a12 12 0 00-12 12v10a12 12 0 0012 12l90-.34.7.71-323.19 323.15a12 12 0 000 17l5.66 5.66a12 12 0 0017 0L477.29 57.34l.71.7-.34 90a12 12 0 0012 12h10a12 12 0 0012-12L512 12a12 12 0 00-12-12z"/></symbol><symbol id="external-link-alt-solid" viewBox="0 0 512 512"><path d="M432 320h-32a16 16 0 00-16 16v112H64V128h144a16 16 0 0016-16V80a16 16 0 00-16-16H48a48 48 0 00-48 48v352a48 48 0 0048 48h352a48 48 0 0048-48V336a16 16 0 00-16-16zM488 0H360c-21.37 0-32.05 25.91-17 41l35.73 35.73L135 320.37a24 24 0 000 34L157.67 377a24 24 0 0034 0l243.61-243.68L471 169c15 15 41 4.5 41-17V24a24 24 0 00-24-24z"/></symbol><symbol id="external-link-alt-regular" viewBox="0 0 512 512"><path d="M432 288h-16a16 16 0 00-16 16v154a6 6 0 01-6 6H54a6 6 0 01-6-6V118a6 6 0 016-6h154a16 16 0 0016-16V80a16 16 0 00-16-16H48a48 48 0 00-48 48v352a48 48 0 0048 48h352a48 48 0 0048-48V304a16 16 0 00-16-16zM500 0H364a12 12 0 00-8.48 20.48l48.19 48.21-272.2 272.2a12 12 0 000 17l22.63 22.63a12 12 0 0017 0l272.2-272.21 48.21 48.2A12 12 0 00512 148V12a12 12 0 00-12-12z"/></symbol><symbol id="external-link-alt-light" viewBox="0 0 512 512"><path d="M440 256h-16a8 8 0 00-8 8v200a16 16 0 01-16 16H48a16 16 0 01-16-16V112a16 16 0 0116-16h200a8 8 0 008-8V72a8 8 0 00-8-8H48a48 48 0 00-48 48v352a48 48 0 0048 48h352a48 48 0 0048-48V264a8 8 0 00-8-8zM480 0h-.06l-96.16.17c-28.45 0-42.66 34.54-22.58 54.62l35.28 35.28-265 265a12 12 0 000 17l8.49 8.49a12 12 0 0017 0l265-265 35.28 35.27c20 20 54.57 6 54.62-22.57l.13-96.21A32 32 0 00480 0zm-.17 128.17l-96-96L480 32z"/></symbol><symbol id="file-pdf-solid" viewBox="0 0 384 512"><path d="M181.9 256.1c-5-16-4.9-46.9-2-46.9 8.4 0 7.6 36.9 2 46.9zm-1.7 47.2c-7.7 20.2-17.3 43.3-28.4 62.7 18.3-7 39-17.2 62.9-21.9-12.7-9.6-24.9-23.4-34.5-40.8zM86.1 428.1c0 .8 13.2-5.4 34.9-40.2-6.7 6.3-29.1 24.5-34.9 40.2zM248 160h136v328c0 13.3-10.7 24-24 24H24c-13.3 0-24-10.7-24-24V24C0 10.7 10.7 0 24 0h200v136c0 13.2 10.8 24 24 24zm-8 171.8c-20-12.2-33.3-29-42.7-53.8 4.5-18.5 11.6-46.6 6.2-64.2-4.7-29.4-42.4-26.5-47.8-6.8-5 18.3-.4 44.1 8.1 77-11.6 27.6-28.7 64.6-40.8 85.8-.1 0-.1.1-.2.1-27.1 13.9-73.6 44.5-54.5 68 5.6 6.9 16 10 21.5 10 17.9 0 35.7-18 61.1-61.8 25.8-8.5 54.1-19.1 79-23.2 21.7 11.8 47.1 19.5 64 19.5 29.2 0 31.2-32 19.7-43.4-13.9-13.6-54.3-9.7-73.6-7.2zM377 105L279 7c-4.5-4.5-10.6-7-17-7h-6v128h128v-6.1c0-6.3-2.5-12.4-7-16.9zm-74.1 255.3c4.1-2.7-2.5-11.9-42.8-9 37.1 15.8 42.8 9 42.8 9z"/></symbol><symbol id="file-pdf-regular" viewBox="0 0 384 512"><path d="M369.9 97.9L286 14C277 5 264.8-.1 252.1-.1H48C21.5 0 0 21.5 0 48v416c0 26.5 21.5 48 48 48h288c26.5 0 48-21.5 48-48V131.9c0-12.7-5.1-25-14.1-34zM332.1 128H256V51.9l76.1 76.1zM48 464V48h160v104c0 13.3 10.7 24 24 24h104v288H48zm250.2-143.7c-12.2-12-47-8.7-64.4-6.5-17.2-10.5-28.7-25-36.8-46.3 3.9-16.1 10.1-40.6 5.4-56-4.2-26.2-37.8-23.6-42.6-5.9-4.4 16.1-.4 38.5 7 67.1-10 23.9-24.9 56-35.4 74.4-20 10.3-47 26.2-51 46.2-3.3 15.8 26 55.2 76.1-31.2 22.4-7.4 46.8-16.5 68.4-20.1 18.9 10.2 41 17 55.8 17 25.5 0 28-28.2 17.5-38.7zm-198.1 77.8c5.1-13.7 24.5-29.5 30.4-35-19 30.3-30.4 35.7-30.4 35zm81.6-190.6c7.4 0 6.7 32.1 1.8 40.8-4.4-13.9-4.3-40.8-1.8-40.8zm-24.4 136.6c9.7-16.9 18-37 24.7-54.7 8.3 15.1 18.9 27.2 30.1 35.5-20.8 4.3-38.9 13.1-54.8 19.2zm131.6-5s-5 6-37.3-7.8c35.1-2.6 40.9 5.4 37.3 7.8z"/></symbol><symbol id="file-pdf-light" viewBox="0 0 384 512"><path d="M369.9 97.9L286 14C277 5 264.8-.1 252.1-.1H48C21.5 0 0 21.5 0 48v416c0 26.5 21.5 48 48 48h288c26.5 0 48-21.5 48-48V131.9c0-12.7-5.1-25-14.1-34zm-22.6 22.7c2.1 2.1 3.5 4.6 4.2 7.4H256V32.5c2.8.7 5.3 2.1 7.4 4.2l83.9 83.9zM336 480H48c-8.8 0-16-7.2-16-16V48c0-8.8 7.2-16 16-16h176v104c0 13.3 10.7 24 24 24h104v304c0 8.8-7.2 16-16 16zm-22-171.2c-13.5-13.3-55-9.2-73.7-6.7-21.2-12.8-35.2-30.4-45.1-56.6 4.3-18 12-47.2 6.4-64.9-4.4-28.1-39.7-24.7-44.6-6.8-5 18.3-.3 44.4 8.4 77.8-11.9 28.4-29.7 66.9-42.1 88.6-20.8 10.7-54.1 29.3-58.8 52.4-3.5 16.8 22.9 39.4 53.1 6.4 9.1-9.9 19.3-24.8 31.3-45.5 26.7-8.8 56.1-19.8 82-24 21.9 12 47.6 19.9 64.6 19.9 27.7.1 28.9-30.2 18.5-40.6zm-229.2 89c5.9-15.9 28.6-34.4 35.5-40.8-22.1 35.3-35.5 41.5-35.5 40.8zM180 175.5c8.7 0 7.8 37.5 2.1 47.6-5.2-16.3-5-47.6-2.1-47.6zm-28.4 159.3c11.3-19.8 21-43.2 28.8-63.7 9.7 17.7 22.1 31.7 35.1 41.5-24.3 4.7-45.4 15.1-63.9 22.2zm153.4-5.9s-5.8 7-43.5-9.1c41-3 47.7 6.4 43.5 9.1z"/></symbol><symbol id="globe-solid" viewBox="0 0 496 512"><path d="M336.5 160C322 70.7 287.8 8 248 8s-74 62.7-88.5 152h177zM152 256c0 22.2 1.2 43.5 3.3 64h185.3c2.1-20.5 3.3-41.8 3.3-64s-1.2-43.5-3.3-64H155.3c-2.1 20.5-3.3 41.8-3.3 64zm324.7-96c-28.6-67.9-86.5-120.4-158-141.6 24.4 33.8 41.2 84.7 50 141.6h108zM177.2 18.4C105.8 39.6 47.8 92.1 19.3 160h108c8.7-56.9 25.5-107.8 49.9-141.6zM487.4 192H372.7c2.1 21 3.3 42.5 3.3 64s-1.2 43-3.3 64h114.6c5.5-20.5 8.6-41.8 8.6-64s-3.1-43.5-8.5-64zM120 256c0-21.5 1.2-43 3.3-64H8.6C3.2 212.5 0 233.8 0 256s3.2 43.5 8.6 64h114.6c-2-21-3.2-42.5-3.2-64zm39.5 96c14.5 89.3 48.7 152 88.5 152s74-62.7 88.5-152h-177zm159.3 141.6c71.4-21.2 129.4-73.7 158-141.6h-108c-8.8 56.9-25.6 107.8-50 141.6zM19.3 352c28.6 67.9 86.5 120.4 158 141.6-24.4-33.8-41.2-84.7-50-141.6h-108z"/></symbol><symbol id="globe-regular" viewBox="0 0 496 512"><path d="M248 8C111 8 0 119 0 256s111 248 248 248 248-111 248-248S385 8 248 8zm179.3 160h-67.2c-6.7-36.5-17.5-68.8-31.2-94.7 42.9 19 77.7 52.7 98.4 94.7zM248 56c18.6 0 48.6 41.2 63.2 112H184.8C199.4 97.2 229.4 56 248 56zM48 256c0-13.7 1.4-27.1 4-40h77.7c-1 13.1-1.7 26.3-1.7 40s.7 26.9 1.7 40H52c-2.6-12.9-4-26.3-4-40zm20.7 88h67.2c6.7 36.5 17.5 68.8 31.2 94.7-42.9-19-77.7-52.7-98.4-94.7zm67.2-176H68.7c20.7-42 55.5-75.7 98.4-94.7-13.7 25.9-24.5 58.2-31.2 94.7zM248 456c-18.6 0-48.6-41.2-63.2-112h126.5c-14.7 70.8-44.7 112-63.3 112zm70.1-160H177.9c-1.1-12.8-1.9-26-1.9-40s.8-27.2 1.9-40h140.3c1.1 12.8 1.9 26 1.9 40s-.9 27.2-2 40zm10.8 142.7c13.7-25.9 24.4-58.2 31.2-94.7h67.2c-20.7 42-55.5 75.7-98.4 94.7zM366.3 296c1-13.1 1.7-26.3 1.7-40s-.7-26.9-1.7-40H444c2.6 12.9 4 26.3 4 40s-1.4 27.1-4 40h-77.7z"/></symbol><symbol id="globe-light" viewBox="0 0 496 512"><path d="M248 8C111 8 0 119 0 256s111 248 248 248 248-111 248-248S385 8 248 8zm193.2 152h-82.5c-9-44.4-24.1-82.2-43.2-109.1 55 18.2 100.2 57.9 125.7 109.1zM336 256c0 22.9-1.6 44.2-4.3 64H164.3c-2.7-19.8-4.3-41.1-4.3-64s1.6-44.2 4.3-64h167.4c2.7 19.8 4.3 41.1 4.3 64zM248 40c26.9 0 61.4 44.1 78.1 120H169.9C186.6 84.1 221.1 40 248 40zm-67.5 10.9c-19 26.8-34.2 64.6-43.2 109.1H54.8c25.5-51.2 70.7-90.9 125.7-109.1zM32 256c0-22.3 3.4-43.8 9.7-64h90.5c-2.6 20.5-4.2 41.8-4.2 64s1.5 43.5 4.2 64H41.7c-6.3-20.2-9.7-41.7-9.7-64zm22.8 96h82.5c9 44.4 24.1 82.2 43.2 109.1-55-18.2-100.2-57.9-125.7-109.1zM248 472c-26.9 0-61.4-44.1-78.1-120h156.2c-16.7 75.9-51.2 120-78.1 120zm67.5-10.9c19-26.8 34.2-64.6 43.2-109.1h82.5c-25.5 51.2-70.7 90.9-125.7 109.1zM363.8 320c2.6-20.5 4.2-41.8 4.2-64s-1.5-43.5-4.2-64h90.5c6.3 20.2 9.7 41.7 9.7 64s-3.4 43.8-9.7 64h-90.5z"/></symbol><symbol id="user-solid" viewBox="0 0 448 512"><path d="M224 256c70.7 0 128-57.3 128-128S294.7 0 224 0 96 57.3 96 128s57.3 128 128 128zm89.6 32h-16.7c-22.2 10.2-46.9 16-72.9 16s-50.6-5.8-72.9-16h-16.7C60.2 288 0 348.2 0 422.4V464c0 26.5 21.5 48 48 48h352c26.5 0 48-21.5 48-48v-41.6c0-74.2-60.2-134.4-134.4-134.4z"/></symbol><symbol id="user-regular" viewBox="0 0 448 512"><path d="M313.6 304c-28.7 0-42.5 16-89.6 16-47.1 0-60.8-16-89.6-16C60.2 304 0 364.2 0 438.4V464c0 26.5 21.5 48 48 48h352c26.5 0 48-21.5 48-48v-25.6c0-74.2-60.2-134.4-134.4-134.4zM400 464H48v-25.6c0-47.6 38.8-86.4 86.4-86.4 14.6 0 38.3 16 89.6 16 51.7 0 74.9-16 89.6-16 47.6 0 86.4 38.8 86.4 86.4V464zM224 288c79.5 0 144-64.5 144-144S303.5 0 224 0 80 64.5 80 144s64.5 144 144 144zm0-240c52.9 0 96 43.1 96 96s-43.1 96-96 96-96-43.1-96-96 43.1-96 96-96z"/></symbol><symbol id="user-light" viewBox="0 0 448 512"><path d="M313.6 288c-28.7 0-42.5 16-89.6 16-47.1 0-60.8-16-89.6-16C60.2 288 0 348.2 0 422.4V464c0 26.5 21.5 48 48 48h352c26.5 0 48-21.5 48-48v-41.6c0-74.2-60.2-134.4-134.4-134.4zM416 464c0 8.8-7.2 16-16 16H48c-8.8 0-16-7.2-16-16v-41.6C32 365.9 77.9 320 134.4 320c19.6 0 39.1 16 89.6 16 50.4 0 70-16 89.6-16 56.5 0 102.4 45.9 102.4 102.4V464zM224 256c70.7 0 128-57.3 128-128S294.7 0 224 0 96 57.3 96 128s57.3 128 128 128zm0-224c52.9 0 96 43.1 96 96s-43.1 96-96 96-96-43.1-96-96 43.1-96 96-96z"/></symbol><symbol id="times-solid" viewBox="0 0 352 512"><path d="M242.72 256l100.07-100.07c12.28-12.28 12.28-32.19 0-44.48l-22.24-22.24c-12.28-12.28-32.19-12.28-44.48 0L176 189.28 75.93 89.21c-12.28-12.28-32.19-12.28-44.48 0L9.21 111.45c-12.28 12.28-12.28 32.19 0 44.48L109.28 256 9.21 356.07c-12.28 12.28-12.28 32.19 0 44.48l22.24 22.24c12.28 12.28 32.2 12.28 44.48 0L176 322.72l100.07 100.07c12.28 12.28 32.2 12.28 44.48 0l22.24-22.24c12.28-12.28 12.28-32.19 0-44.48L242.72 256z"/></symbol><symbol id="times-regular" viewBox="0 0 320 512"><path d="M207.6 256l107.72-107.72c6.23-6.23 6.23-16.34 0-22.58l-25.03-25.03c-6.23-6.23-16.34-6.23-22.58 0L160 208.4 52.28 100.68c-6.23-6.23-16.34-6.23-22.58 0L4.68 125.7c-6.23 6.23-6.23 16.34 0 22.58L112.4 256 4.68 363.72c-6.23 6.23-6.23 16.34 0 22.58l25.03 25.03c6.23 6.23 16.34 6.23 22.58 0L160 303.6l107.72 107.72c6.23 6.23 16.34 6.23 22.58 0l25.03-25.03c6.23-6.23 6.23-16.34 0-22.58L207.6 256z"/></symbol><symbol id="times-light" viewBox="0 0 320 512"><path d="M193.94 256L296.5 153.44l21.15-21.15c3.12-3.12 3.12-8.19 0-11.31l-22.63-22.63c-3.12-3.12-8.19-3.12-11.31 0L160 222.06 36.29 98.34c-3.12-3.12-8.19-3.12-11.31 0L2.34 120.97c-3.12 3.12-3.12 8.19 0 11.31L126.06 256 2.34 379.71c-3.12 3.12-3.12 8.19 0 11.31l22.63 22.63c3.12 3.12 8.19 3.12 11.31 0L160 289.94 262.56 392.5l21.15 21.15c3.12 3.12 8.19 3.12 11.31 0l22.63-22.63c3.12-3.12 3.12-8.19 0-11.31L193.94 256z"/></symbol><symbol id="arrow-up-solid" viewBox="0 0 448 512"><path d="M34.9 289.5l-22.2-22.2c-9.4-9.4-9.4-24.6 0-33.9L207 39c9.4-9.4 24.6-9.4 33.9 0l194.3 194.3c9.4 9.4 9.4 24.6 0 33.9L413 289.4c-9.5 9.5-25 9.3-34.3-.4L264 168.6V456c0 13.3-10.7 24-24 24h-32c-13.3 0-24-10.7-24-24V168.6L69.2 289.1c-9.3 9.8-24.8 10-34.3.4z"/></symbol><symbol id="arrow-up-regular" viewBox="0 0 448 512"><path d="M6.101 261.899L25.9 281.698c4.686 4.686 12.284 4.686 16.971 0L198 126.568V468c0 6.627 5.373 12 12 12h28c6.627 0 12-5.373 12-12V126.568l155.13 155.13c4.686 4.686 12.284 4.686 16.971 0l19.799-19.799c4.686-4.686 4.686-12.284 0-16.971L232.485 35.515c-4.686-4.686-12.284-4.686-16.971 0L6.101 244.929c-4.687 4.686-4.687 12.284 0 16.97z"/></symbol><symbol id="arrow-up-light" viewBox="0 0 448 512"><path d="M4.465 263.536l7.07 7.071c4.686 4.686 12.284 4.686 16.971 0L207 92.113V468c0 6.627 5.373 12 12 12h10c6.627 0 12-5.373 12-12V92.113l178.494 178.493c4.686 4.686 12.284 4.686 16.971 0l7.07-7.071c4.686-4.686 4.686-12.284 0-16.97l-211.05-211.05c-4.686-4.686-12.284-4.686-16.971 0L4.465 246.566c-4.687 4.686-4.687 12.284 0 16.97z"/></symbol><symbol id="arrow-right-solid" viewBox="0 0 448 512"><path d="M190.5 66.9l22.2-22.2c9.4-9.4 24.6-9.4 33.9 0L441 239c9.4 9.4 9.4 24.6 0 33.9L246.6 467.3c-9.4 9.4-24.6 9.4-33.9 0l-22.2-22.2c-9.5-9.5-9.3-25 .4-34.3L311.4 296H24c-13.3 0-24-10.7-24-24v-32c0-13.3 10.7-24 24-24h287.4L190.9 101.2c-9.8-9.3-10-24.8-.4-34.3z"/></symbol><symbol id="arrow-right-regular" viewBox="0 0 448 512"><path d="M218.101 38.101L198.302 57.9c-4.686 4.686-4.686 12.284 0 16.971L353.432 230H12c-6.627 0-12 5.373-12 12v28c0 6.627 5.373 12 12 12h341.432l-155.13 155.13c-4.686 4.686-4.686 12.284 0 16.971l19.799 19.799c4.686 4.686 12.284 4.686 16.971 0l209.414-209.414c4.686-4.686 4.686-12.284 0-16.971L235.071 38.101c-4.686-4.687-12.284-4.687-16.97 0z"/></symbol><symbol id="arrow-right-light" viewBox="0 0 448 512"><path d="M216.464 36.465l-7.071 7.07c-4.686 4.686-4.686 12.284 0 16.971L387.887 239H12c-6.627 0-12 5.373-12 12v10c0 6.627 5.373 12 12 12h375.887L209.393 451.494c-4.686 4.686-4.686 12.284 0 16.971l7.071 7.07c4.686 4.686 12.284 4.686 16.97 0l211.051-211.05c4.686-4.686 4.686-12.284 0-16.971L233.434 36.465c-4.686-4.687-12.284-4.687-16.97 0z"/></symbol><symbol id="arrow-left-solid" viewBox="0 0 448 512"><path d="M257.5 445.1l-22.2 22.2c-9.4 9.4-24.6 9.4-33.9 0L7 273c-9.4-9.4-9.4-24.6 0-33.9L201.4 44.7c9.4-9.4 24.6-9.4 33.9 0l22.2 22.2c9.5 9.5 9.3 25-.4 34.3L136.6 216H424c13.3 0 24 10.7 24 24v32c0 13.3-10.7 24-24 24H136.6l120.5 114.8c9.8 9.3 10 24.8.4 34.3z"/></symbol><symbol id="arrow-left-regular" viewBox="0 0 448 512"><path d="M229.9 473.899l19.799-19.799c4.686-4.686 4.686-12.284 0-16.971L94.569 282H436c6.627 0 12-5.373 12-12v-28c0-6.627-5.373-12-12-12H94.569l155.13-155.13c4.686-4.686 4.686-12.284 0-16.971L229.9 38.101c-4.686-4.686-12.284-4.686-16.971 0L3.515 247.515c-4.686 4.686-4.686 12.284 0 16.971L212.929 473.9c4.686 4.686 12.284 4.686 16.971-.001z"/></symbol><symbol id="arrow-left-light" viewBox="0 0 448 512"><path d="M231.536 475.535l7.071-7.07c4.686-4.686 4.686-12.284 0-16.971L60.113 273H436c6.627 0 12-5.373 12-12v-10c0-6.627-5.373-12-12-12H60.113L238.607 60.506c4.686-4.686 4.686-12.284 0-16.971l-7.071-7.07c-4.686-4.686-12.284-4.686-16.97 0L3.515 247.515c-4.686 4.686-4.686 12.284 0 16.971l211.051 211.05c4.686 4.686 12.284 4.686 16.97-.001z"/></symbol><symbol id="arrow-down-solid" viewBox="0 0 448 512"><path d="M413.1 222.5l22.2 22.2c9.4 9.4 9.4 24.6 0 33.9L241 473c-9.4 9.4-24.6 9.4-33.9 0L12.7 278.6c-9.4-9.4-9.4-24.6 0-33.9l22.2-22.2c9.5-9.5 25-9.3 34.3.4L184 343.4V56c0-13.3 10.7-24 24-24h32c13.3 0 24 10.7 24 24v287.4l114.8-120.5c9.3-9.8 24.8-10 34.3-.4z"/></symbol><symbol id="arrow-down-regular" viewBox="0 0 448 512"><path d="M441.9 250.1l-19.8-19.8c-4.7-4.7-12.3-4.7-17 0L250 385.4V44c0-6.6-5.4-12-12-12h-28c-6.6 0-12 5.4-12 12v341.4L42.9 230.3c-4.7-4.7-12.3-4.7-17 0L6.1 250.1c-4.7 4.7-4.7 12.3 0 17l209.4 209.4c4.7 4.7 12.3 4.7 17 0l209.4-209.4c4.7-4.7 4.7-12.3 0-17z"/></symbol><symbol id="arrow-down-light" viewBox="0 0 448 512"><path d="M443.5 248.5l-7.1-7.1c-4.7-4.7-12.3-4.7-17 0L241 419.9V44c0-6.6-5.4-12-12-12h-10c-6.6 0-12 5.4-12 12v375.9L28.5 241.4c-4.7-4.7-12.3-4.7-17 0l-7.1 7.1c-4.7 4.7-4.7 12.3 0 17l211 211.1c4.7 4.7 12.3 4.7 17 0l211-211.1c4.8-4.8 4.8-12.3.1-17z"/></symbol><symbol id="chevron-up-solid" viewBox="0 0 448 512"><path d="M240.971 130.524l194.343 194.343c9.373 9.373 9.373 24.569 0 33.941l-22.667 22.667c-9.357 9.357-24.522 9.375-33.901.04L224 227.495 69.255 381.516c-9.379 9.335-24.544 9.317-33.901-.04l-22.667-22.667c-9.373-9.373-9.373-24.569 0-33.941L207.03 130.525c9.372-9.373 24.568-9.373 33.941-.001z"/></symbol><symbol id="chevron-up-regular" viewBox="0 0 448 512"><path d="M6.101 359.293L25.9 379.092c4.686 4.686 12.284 4.686 16.971 0L224 198.393l181.13 180.698c4.686 4.686 12.284 4.686 16.971 0l19.799-19.799c4.686-4.686 4.686-12.284 0-16.971L232.485 132.908c-4.686-4.686-12.284-4.686-16.971 0L6.101 342.322c-4.687 4.687-4.687 12.285 0 16.971z"/></symbol><symbol id="chevron-up-light" viewBox="0 0 448 512"><path d="M4.465 366.475l7.07 7.071c4.686 4.686 12.284 4.686 16.971 0L224 178.053l195.494 195.493c4.686 4.686 12.284 4.686 16.971 0l7.07-7.071c4.686-4.686 4.686-12.284 0-16.97l-211.05-211.051c-4.686-4.686-12.284-4.686-16.971 0L4.465 349.505c-4.687 4.686-4.687 12.284 0 16.97z"/></symbol><symbol id="chevron-right-solid" viewBox="0 0 320 512"><path d="M285.476 272.971L91.132 467.314c-9.373 9.373-24.569 9.373-33.941 0l-22.667-22.667c-9.357-9.357-9.375-24.522-.04-33.901L188.505 256 34.484 101.255c-9.335-9.379-9.317-24.544.04-33.901l22.667-22.667c9.373-9.373 24.569-9.373 33.941 0L285.475 239.03c9.373 9.372 9.373 24.568.001 33.941z"/></symbol><symbol id="chevron-right-regular" viewBox="0 0 256 512"><path d="M24.707 38.101L4.908 57.899c-4.686 4.686-4.686 12.284 0 16.971L185.607 256 4.908 437.13c-4.686 4.686-4.686 12.284 0 16.971L24.707 473.9c4.686 4.686 12.284 4.686 16.971 0l209.414-209.414c4.686-4.686 4.686-12.284 0-16.971L41.678 38.101c-4.687-4.687-12.285-4.687-16.971 0z"/></symbol><symbol id="chevron-right-light" viewBox="0 0 256 512"><path d="M17.525 36.465l-7.071 7.07c-4.686 4.686-4.686 12.284 0 16.971L205.947 256 10.454 451.494c-4.686 4.686-4.686 12.284 0 16.971l7.071 7.07c4.686 4.686 12.284 4.686 16.97 0l211.051-211.05c4.686-4.686 4.686-12.284 0-16.971L34.495 36.465c-4.686-4.687-12.284-4.687-16.97 0z"/></symbol><symbol id="chevron-left-solid" viewBox="0 0 320 512"><path d="M34.52 239.03L228.87 44.69c9.37-9.37 24.57-9.37 33.94 0l22.67 22.67c9.36 9.36 9.37 24.52.04 33.9L131.49 256l154.02 154.75c9.34 9.38 9.32 24.54-.04 33.9l-22.67 22.67c-9.37 9.37-24.57 9.37-33.94 0L34.52 272.97c-9.37-9.37-9.37-24.57 0-33.94z"/></symbol><symbol id="chevron-left-regular" viewBox="0 0 256 512"><path d="M231.293 473.899l19.799-19.799c4.686-4.686 4.686-12.284 0-16.971L70.393 256 251.092 74.87c4.686-4.686 4.686-12.284 0-16.971L231.293 38.1c-4.686-4.686-12.284-4.686-16.971 0L4.908 247.515c-4.686 4.686-4.686 12.284 0 16.971L214.322 473.9c4.687 4.686 12.285 4.686 16.971-.001z"/></symbol><symbol id="chevron-left-light" viewBox="0 0 256 512"><path d="M238.475 475.535l7.071-7.07c4.686-4.686 4.686-12.284 0-16.971L50.053 256 245.546 60.506c4.686-4.686 4.686-12.284 0-16.971l-7.071-7.07c-4.686-4.686-12.284-4.686-16.97 0L10.454 247.515c-4.686 4.686-4.686 12.284 0 16.971l211.051 211.05c4.686 4.686 12.284 4.686 16.97-.001z"/></symbol><symbol id="chevron-down-solid" viewBox="0 0 448 512"><path d="M207.029 381.476L12.686 187.132c-9.373-9.373-9.373-24.569 0-33.941l22.667-22.667c9.357-9.357 24.522-9.375 33.901-.04L224 284.505l154.745-154.021c9.379-9.335 24.544-9.317 33.901.04l22.667 22.667c9.373 9.373 9.373 24.569 0 33.941L240.971 381.476c-9.373 9.372-24.569 9.372-33.942 0z"/></symbol><symbol id="chevron-down-regular" viewBox="0 0 448 512"><path d="M441.9 167.3l-19.8-19.8c-4.7-4.7-12.3-4.7-17 0L224 328.2 42.9 147.5c-4.7-4.7-12.3-4.7-17 0L6.1 167.3c-4.7 4.7-4.7 12.3 0 17l209.4 209.4c4.7 4.7 12.3 4.7 17 0l209.4-209.4c4.7-4.7 4.7-12.3 0-17z"/></symbol><symbol id="chevron-down-light" viewBox="0 0 448 512"><path d="M443.5 162.6l-7.1-7.1c-4.7-4.7-12.3-4.7-17 0L224 351 28.5 155.5c-4.7-4.7-12.3-4.7-17 0l-7.1 7.1c-4.7 4.7-4.7 12.3 0 17l211 211.1c4.7 4.7 12.3 4.7 17 0l211-211.1c4.8-4.7 4.8-12.3.1-17z"/></symbol><symbol id="caret-up-solid" viewBox="0 0 320 512"><path d="M288.662 352H31.338c-17.818 0-26.741-21.543-14.142-34.142l128.662-128.662c7.81-7.81 20.474-7.81 28.284 0l128.662 128.662c12.6 12.599 3.676 34.142-14.142 34.142z"/></symbol><symbol id="caret-up-regular" viewBox="0 0 320 512"><path d="M48.048 352h223.895c42.638 0 64.151-51.731 33.941-81.941l-111.943-112c-18.745-18.745-49.137-18.746-67.882 0l-111.952 112C-16.042 300.208 5.325 352 48.048 352zM160 192l112 112H48l112-112z"/></symbol><symbol id="caret-up-light" viewBox="0 0 320 512"><path d="M32.032 352h255.93c28.425 0 42.767-34.488 22.627-54.627l-127.962-128c-12.496-12.496-32.758-12.497-45.255 0l-127.968 128C-10.695 317.472 3.55 352 32.032 352zM160 192l128 128H32l128-128z"/></symbol><symbol id="caret-right-solid" viewBox="0 0 192 512"><path d="M0 384.662V127.338c0-17.818 21.543-26.741 34.142-14.142l128.662 128.662c7.81 7.81 7.81 20.474 0 28.284L34.142 398.804C21.543 411.404 0 402.48 0 384.662z"/></symbol><symbol id="caret-right-regular" viewBox="0 0 224 512"><path d="M0 144.048v223.895c0 42.638 51.731 64.151 81.941 33.941l112-111.943c18.745-18.745 18.746-49.137 0-67.882l-112-111.952C51.792 79.958 0 101.325 0 144.048zM160 256L48 368V144l112 112z"/></symbol><symbol id="caret-right-light" viewBox="0 0 192 512"><path d="M0 128.032v255.93c0 28.425 34.488 42.767 54.627 22.627l128-127.962c12.496-12.496 12.497-32.758 0-45.255l-128-127.968C34.528 85.305 0 99.55 0 128.032zM160 256L32 384V128l128 128z"/></symbol><symbol id="caret-left-solid" viewBox="0 0 192 512"><path d="M192 127.338v257.324c0 17.818-21.543 26.741-34.142 14.142L29.196 270.142c-7.81-7.81-7.81-20.474 0-28.284l128.662-128.662c12.599-12.6 34.142-3.676 34.142 14.142z"/></symbol><symbol id="caret-left-regular" viewBox="0 0 224 512"><path d="M224 367.952V144.057c0-42.638-51.731-64.151-81.941-33.941l-112 111.943c-18.745 18.745-18.746 49.137 0 67.882l112 111.952C172.208 432.042 224 410.675 224 367.952zM64 256l112-112v224L64 256z"/></symbol><symbol id="caret-left-light" viewBox="0 0 192 512"><path d="M192 383.968v-255.93c0-28.425-34.488-42.767-54.627-22.627l-128 127.962c-12.496 12.496-12.497 32.758 0 45.255l128 127.968C157.472 426.695 192 412.45 192 383.968zM32 256l128-128v256L32 256z"/></symbol><symbol id="caret-down-solid" viewBox="0 0 320 512"><path d="M31.3 192h257.3c17.8 0 26.7 21.5 14.1 34.1L174.1 354.8c-7.8 7.8-20.5 7.8-28.3 0L17.2 226.1C4.6 213.5 13.5 192 31.3 192z"/></symbol><symbol id="caret-down-regular" viewBox="0 0 320 512"><path d="M272 160H48.1c-42.6 0-64.2 51.7-33.9 81.9l111.9 112c18.7 18.7 49.1 18.7 67.9 0l112-112c30-30.1 8.7-81.9-34-81.9zM160 320L48 208h224L160 320z"/></symbol><symbol id="caret-down-light" viewBox="0 0 320 512"><path d="M287.968 160H32.038c-28.425 0-42.767 34.488-22.627 54.627l127.962 128c12.496 12.496 32.758 12.497 45.255 0l127.968-128C330.695 194.528 316.45 160 287.968 160zM160 320L32 192h256L160 320z"/></symbol><symbol id="chevron-circle-up-solid" viewBox="0 0 512 512"><path d="M8 256C8 119 119 8 256 8s248 111 248 248-111 248-248 248S8 393 8 256zm231-113.9L103.5 277.6c-9.4 9.4-9.4 24.6 0 33.9l17 17c9.4 9.4 24.6 9.4 33.9 0L256 226.9l101.6 101.6c9.4 9.4 24.6 9.4 33.9 0l17-17c9.4-9.4 9.4-24.6 0-33.9L273 142.1c-9.4-9.4-24.6-9.4-34 0z"/></symbol><symbol id="chevron-circle-up-regular" viewBox="0 0 512 512"><path d="M264.5 163.5l122.8 122.8c4.7 4.7 4.7 12.3 0 17l-22.6 22.6c-4.7 4.7-12.3 4.7-17 0L256 234.2l-91.7 91.7c-4.7 4.7-12.3 4.7-17 0l-22.6-22.6c-4.7-4.7-4.7-12.3 0-17l122.8-122.8c4.7-4.7 12.3-4.7 17 0zM504 256c0 137-111 248-248 248S8 393 8 256 119 8 256 8s248 111 248 248zm-48 0c0-110.5-89.5-200-200-200S56 145.5 56 256s89.5 200 200 200 200-89.5 200-200z"/></symbol><symbol id="chevron-circle-up-light" viewBox="0 0 512 512"><path d="M256 504c137 0 248-111 248-248S393 8 256 8 8 119 8 256s111 248 248 248zM40 256c0-118.7 96.1-216 216-216 118.7 0 216 96.1 216 216 0 118.7-96.1 216-216 216-118.7 0-216-96.1-216-216zm224.5-86.6l115 115.1c4.7 4.7 4.7 12.3 0 17l-7.1 7.1c-4.7 4.7-12.3 4.7-17 0L256 209l-99.5 99.5c-4.7 4.7-12.3 4.7-17 0l-7.1-7.1c-4.7-4.7-4.7-12.3 0-17l115-115.1c4.8-4.6 12.4-4.6 17.1.1z"/></symbol><symbol id="chevron-circle-right-solid" viewBox="0 0 512 512"><path d="M256 8c137 0 248 111 248 248S393 504 256 504 8 393 8 256 119 8 256 8zm113.9 231L234.4 103.5c-9.4-9.4-24.6-9.4-33.9 0l-17 17c-9.4 9.4-9.4 24.6 0 33.9L285.1 256 183.5 357.6c-9.4 9.4-9.4 24.6 0 33.9l17 17c9.4 9.4 24.6 9.4 33.9 0L369.9 273c9.4-9.4 9.4-24.6 0-34z"/></symbol><symbol id="chevron-circle-right-regular" viewBox="0 0 512 512"><path d="M8 256c0 137 111 248 248 248s248-111 248-248S393 8 256 8 8 119 8 256zm448 0c0 110.5-89.5 200-200 200S56 366.5 56 256 145.5 56 256 56s200 89.5 200 200zm-107.5 8.5L225.7 387.3c-4.7 4.7-12.3 4.7-17 0l-22.6-22.6c-4.7-4.7-4.7-12.3 0-17l91.7-91.7-91.7-91.7c-4.7-4.7-4.7-12.3 0-17l22.6-22.6c4.7-4.7 12.3-4.7 17 0l122.8 122.8c4.7 4.7 4.7 12.3 0 17z"/></symbol><symbol id="chevron-circle-right-light" viewBox="0 0 512 512"><path d="M8 256c0 137 111 248 248 248s248-111 248-248S393 8 256 8 8 119 8 256zM256 40c118.7 0 216 96.1 216 216 0 118.7-96.1 216-216 216-118.7 0-216-96.1-216-216 0-118.7 96.1-216 216-216zm86.6 224.5l-115.1 115c-4.7 4.7-12.3 4.7-17 0l-7.1-7.1c-4.7-4.7-4.7-12.3 0-17L303 256l-99.5-99.5c-4.7-4.7-4.7-12.3 0-17l7.1-7.1c4.7-4.7 12.3-4.7 17 0l115.1 115c4.6 4.8 4.6 12.4-.1 17.1z"/></symbol><symbol id="chevron-circle-left-solid" viewBox="0 0 512 512"><path d="M256 504C119 504 8 393 8 256S119 8 256 8s248 111 248 248-111 248-248 248zM142.1 273l135.5 135.5c9.4 9.4 24.6 9.4 33.9 0l17-17c9.4-9.4 9.4-24.6 0-33.9L226.9 256l101.6-101.6c9.4-9.4 9.4-24.6 0-33.9l-17-17c-9.4-9.4-24.6-9.4-33.9 0L142.1 239c-9.4 9.4-9.4 24.6 0 34z"/></symbol><symbol id="chevron-circle-left-regular" viewBox="0 0 512 512"><path d="M504 256C504 119 393 8 256 8S8 119 8 256s111 248 248 248 248-111 248-248zm-448 0c0-110.5 89.5-200 200-200s200 89.5 200 200-89.5 200-200 200S56 366.5 56 256zm107.5-8.5l122.8-122.8c4.7-4.7 12.3-4.7 17 0l22.6 22.6c4.7 4.7 4.7 12.3 0 17L234.2 256l91.7 91.7c4.7 4.7 4.7 12.3 0 17l-22.6 22.6c-4.7 4.7-12.3 4.7-17 0L163.5 264.5c-4.7-4.7-4.7-12.3 0-17z"/></symbol><symbol id="chevron-circle-left-light" viewBox="0 0 512 512"><path d="M504 256C504 119 393 8 256 8S8 119 8 256s111 248 248 248 248-111 248-248zM256 472c-118.7 0-216-96.1-216-216 0-118.7 96.1-216 216-216 118.7 0 216 96.1 216 216 0 118.7-96.1 216-216 216zm-86.6-224.5l115.1-115c4.7-4.7 12.3-4.7 17 0l7.1 7.1c4.7 4.7 4.7 12.3 0 17L209 256l99.5 99.5c4.7 4.7 4.7 12.3 0 17l-7.1 7.1c-4.7 4.7-12.3 4.7-17 0l-115.1-115c-4.6-4.8-4.6-12.4.1-17.1z"/></symbol><symbol id="chevron-circle-down-solid" viewBox="0 0 512 512"><path d="M504 256c0 137-111 248-248 248S8 393 8 256 119 8 256 8s248 111 248 248zM273 369.9l135.5-135.5c9.4-9.4 9.4-24.6 0-33.9l-17-17c-9.4-9.4-24.6-9.4-33.9 0L256 285.1 154.4 183.5c-9.4-9.4-24.6-9.4-33.9 0l-17 17c-9.4 9.4-9.4 24.6 0 33.9L239 369.9c9.4 9.4 24.6 9.4 34 0z"/></symbol><symbol id="chevron-circle-down-regular" viewBox="0 0 512 512"><path d="M256 8C119 8 8 119 8 256s111 248 248 248 248-111 248-248S393 8 256 8zm0 448c-110.5 0-200-89.5-200-200S145.5 56 256 56s200 89.5 200 200-89.5 200-200 200zm8.5-107.5l122.8-122.8c4.7-4.7 4.7-12.3 0-17l-22.6-22.6c-4.7-4.7-12.3-4.7-17 0L256 277.8l-91.7-91.7c-4.7-4.7-12.3-4.7-17 0l-22.6 22.6c-4.7 4.7-4.7 12.3 0 17l122.8 122.8c4.7 4.7 12.3 4.7 17 0z"/></symbol><symbol id="chevron-circle-down-light" viewBox="0 0 512 512"><path d="M256 8C119 8 8 119 8 256s111 248 248 248 248-111 248-248S393 8 256 8zm216 248c0 118.7-96.1 216-216 216-118.7 0-216-96.1-216-216 0-118.7 96.1-216 216-216 118.7 0 216 96.1 216 216zm-207.5 86.6l115-115.1c4.7-4.7 4.7-12.3 0-17l-7.1-7.1c-4.7-4.7-12.3-4.7-17 0L256 303l-99.5-99.5c-4.7-4.7-12.3-4.7-17 0l-7.1 7.1c-4.7 4.7-4.7 12.3 0 17l115 115.1c4.8 4.6 12.4 4.6 17.1-.1z"/></symbol></svg>